<?xml version="1.0" encoding="UTF-8" ?>
<!DOCTYPE svg PUBLIC "-//W3C//DTD SVG 1.1//EN" "http://www.w3.org/Graphics/SVG/1.1/DTD/svg11.dtd">
<svg width="1132pt" height="883pt" viewBox="0 0 1132 883" version="1.1" xmlns="http://www.w3.org/2000/svg">
<path fill="#ffffff" d=" M 0.00 0.00 L 1132.00 0.00 L 1132.00 515.82 C 1111.77 515.82 1091.54 515.83 1071.32 515.82 C 1065.77 550.23 1059.71 584.55 1054.11 618.95 C 1052.07 630.31 1050.96 641.96 1046.77 652.82 C 1043.18 663.38 1034.61 672.37 1023.83 675.60 C 1012.11 679.25 999.20 679.54 987.46 675.86 C 980.17 673.73 974.50 667.44 973.00 660.02 C 970.63 651.79 972.52 643.36 972.48 635.00 C 976.00 594.72 986.53 555.55 993.55 515.83 C 973.24 515.81 952.93 515.85 932.62 515.81 C 927.60 543.48 921.66 570.97 916.71 598.64 C 914.10 615.03 911.71 631.53 911.25 648.14 C 909.77 662.20 910.82 677.36 918.13 689.80 C 924.09 700.38 934.89 707.26 946.05 711.35 C 959.14 716.17 973.19 717.50 987.03 718.33 C 1012.79 718.65 1039.65 718.34 1063.58 707.53 C 1078.16 701.17 1090.49 689.95 1098.31 676.11 C 1108.65 658.47 1111.83 637.93 1114.95 618.04 C 1118.86 594.37 1123.00 570.74 1126.92 547.08 C 1128.62 537.31 1130.01 527.48 1132.00 517.77 L 1132.00 883.00 L 0.00 883.00 L 0.00 0.00 Z" />
<path fill="#231f20" d=" M 135.67 0.86 C 137.67 0.95 139.80 1.11 141.16 2.79 C 173.43 32.58 210.25 57.66 250.50 75.37 C 272.36 84.67 297.11 87.90 316.46 102.51 C 344.74 123.43 369.82 148.74 400.35 166.56 C 414.27 174.60 429.71 181.13 446.02 181.27 C 460.53 180.69 473.18 172.13 483.12 162.15 C 493.30 152.21 501.65 140.63 510.59 129.61 C 515.11 124.20 519.60 118.50 525.71 114.78 C 529.02 112.61 533.22 112.94 536.94 113.62 C 542.79 114.92 547.59 118.67 552.79 121.40 C 572.87 114.79 592.85 107.91 612.88 101.17 C 618.92 99.22 624.85 96.88 631.02 95.33 C 599.71 115.12 568.68 135.35 537.47 155.29 C 532.81 158.18 527.14 158.74 522.49 161.64 C 503.87 172.48 490.14 189.57 477.26 206.45 C 499.46 215.16 523.23 219.30 546.92 221.14 C 565.26 222.07 583.62 222.24 601.98 222.10 C 606.02 222.14 610.46 221.70 614.00 224.06 C 645.83 248.46 679.71 271.24 717.82 284.58 C 729.51 288.62 741.51 291.81 753.72 293.78 C 753.68 294.63 753.64 295.49 753.61 296.35 C 748.99 298.29 744.05 299.65 739.00 299.48 C 721.64 299.78 704.94 294.33 688.65 288.96 C 697.20 295.47 706.15 301.58 715.99 305.98 C 727.57 310.56 739.17 315.15 750.29 320.77 C 753.31 322.25 756.22 324.03 758.71 326.32 C 757.59 327.35 756.70 328.79 755.20 329.29 C 743.15 331.09 730.82 329.05 719.53 324.67 C 702.84 318.49 687.63 309.05 673.12 298.89 C 677.63 305.58 683.56 311.09 689.33 316.66 C 702.68 329.40 717.42 340.53 731.56 352.35 C 731.56 352.87 731.56 353.93 731.56 354.46 C 726.41 355.08 720.97 355.10 716.14 352.96 C 710.79 350.58 705.99 347.17 701.23 343.80 C 688.32 334.35 676.36 323.70 664.69 312.79 C 670.99 327.84 681.88 340.32 692.39 352.58 C 697.21 358.12 702.28 363.45 707.40 368.72 C 708.46 369.68 708.81 371.09 709.32 372.37 C 705.28 373.25 700.99 372.85 697.51 370.49 C 679.68 359.76 666.24 343.35 654.07 326.78 C 658.99 341.85 668.37 354.86 677.58 367.57 C 680.44 371.70 683.55 375.73 685.48 380.42 C 677.42 381.30 672.13 373.96 666.95 368.99 C 659.05 360.40 652.50 350.69 646.32 340.83 C 644.84 338.73 644.36 335.99 642.44 334.24 C 642.16 335.82 641.98 337.42 641.73 339.01 L 642.83 334.84 C 645.02 350.67 654.11 364.29 662.49 377.49 C 663.26 378.73 663.65 380.11 663.66 381.61 C 659.97 381.28 656.50 379.77 653.76 377.30 C 643.50 368.58 637.94 356.05 630.76 344.98 C 630.73 347.02 630.72 349.07 630.76 351.12 C 631.63 357.66 635.91 363.16 636.64 369.70 C 635.08 369.74 633.54 369.72 632.00 369.67 C 624.01 360.91 621.73 348.20 612.38 340.55 C 601.13 331.00 586.13 327.63 571.80 326.08 C 550.39 323.38 528.73 325.83 507.32 323.49 C 475.40 319.67 444.05 311.84 413.82 301.01 C 412.23 314.70 412.03 328.78 407.31 341.89 C 405.57 346.33 403.19 351.06 398.73 353.30 C 395.07 354.93 390.92 354.79 387.00 354.51 C 375.85 353.83 364.99 351.08 354.02 349.20 C 354.12 348.06 354.26 346.93 354.45 345.81 C 355.34 343.96 356.30 340.82 358.94 341.40 C 369.33 342.73 379.54 345.83 390.10 345.68 C 394.48 345.95 397.61 342.09 399.23 338.47 C 404.20 326.67 402.87 313.63 404.57 301.22 C 402.05 303.20 399.53 305.18 396.93 307.05 C 396.83 303.34 396.71 299.64 396.57 295.93 C 414.71 281.08 432.46 265.46 446.96 246.94 C 455.03 236.40 462.28 224.80 465.52 211.80 C 467.66 204.34 471.91 197.70 476.70 191.67 C 484.41 182.15 493.44 173.82 502.27 165.36 C 509.20 158.81 518.30 155.51 526.87 151.74 C 532.54 149.29 538.00 145.66 541.20 140.23 C 543.56 136.35 544.35 131.82 545.17 127.43 C 540.60 128.23 535.72 129.42 531.22 127.66 C 528.58 126.90 524.87 124.76 522.89 127.81 C 514.13 137.81 506.60 148.82 497.98 158.93 C 488.62 169.99 477.72 180.44 464.02 185.82 C 454.21 189.75 443.36 190.73 432.94 189.26 C 424.78 187.81 416.96 184.83 409.48 181.33 C 395.88 174.88 383.22 166.63 371.02 157.86 C 351.63 143.85 333.43 128.30 315.41 112.60 C 311.15 108.79 305.66 106.90 300.56 104.54 C 280.43 95.86 260.07 87.68 239.43 80.32 C 236.96 79.63 234.42 78.32 231.82 78.94 C 227.73 79.62 225.93 83.80 223.31 86.49 C 219.69 86.01 215.56 84.34 212.12 86.01 C 205.59 93.52 209.25 105.96 217.56 110.59 C 231.38 118.99 248.02 120.35 262.78 126.52 C 270.74 129.70 278.60 134.09 283.75 141.14 C 303.09 167.45 322.01 194.64 347.00 216.01 C 353.49 221.71 360.60 226.64 367.37 232.00 C 377.41 223.42 385.08 212.22 389.93 199.97 C 390.37 213.07 384.75 225.58 376.66 235.63 C 358.40 259.11 332.79 275.05 308.56 291.62 C 306.83 292.76 304.73 294.87 305.98 297.10 C 309.83 303.66 315.49 308.93 319.77 315.20 C 320.48 316.38 321.50 317.54 321.48 319.01 C 320.83 320.19 319.96 321.23 319.03 322.21 C 318.10 323.10 317.15 323.98 316.19 324.83 C 309.15 315.49 301.93 306.27 294.49 297.25 C 294.59 295.27 294.17 293.10 295.38 291.37 C 298.50 286.22 303.76 282.90 308.57 279.49 C 315.96 274.36 324.14 270.42 331.19 264.81 C 308.91 252.91 288.00 238.48 268.65 222.25 C 241.99 198.55 217.04 172.63 187.51 152.37 C 181.45 148.46 175.14 144.61 168.10 142.79 C 160.28 140.99 152.81 145.41 144.99 144.79 C 141.52 144.84 138.23 143.41 135.58 141.23 C 135.89 140.67 136.49 139.55 136.80 139.00 C 144.43 137.16 153.02 137.03 159.25 131.64 C 150.16 131.18 141.03 132.10 131.95 131.17 C 125.97 130.16 119.64 129.76 114.24 126.71 C 112.56 125.95 112.07 124.03 111.28 122.54 C 120.11 120.68 129.15 122.45 138.07 121.62 C 146.30 121.04 154.20 118.53 162.16 116.56 C 144.76 115.84 126.83 116.57 110.16 110.68 C 106.51 109.20 102.18 108.20 100.00 104.60 C 103.56 103.42 107.32 103.83 110.97 104.18 C 128.72 104.84 146.72 105.84 164.19 101.95 C 150.51 101.36 136.95 99.04 123.58 96.14 C 115.64 94.11 107.44 92.07 100.53 87.48 C 97.76 85.62 95.51 82.93 94.94 79.55 C 113.27 78.26 130.78 85.46 148.95 86.48 C 155.75 86.90 162.55 86.44 169.34 86.08 C 151.11 80.74 132.51 76.02 115.43 67.50 C 109.91 64.65 104.21 61.56 100.33 56.57 C 98.94 54.91 98.48 52.76 98.15 50.68 C 104.71 50.67 110.90 53.08 117.12 54.86 C 134.22 60.17 151.17 66.09 168.67 69.94 C 171.09 70.51 173.58 70.55 176.04 70.67 C 163.70 66.24 152.28 59.58 141.04 52.89 C 131.60 46.96 122.28 40.53 114.70 32.29 C 111.03 28.25 108.07 23.52 106.72 18.19 C 106.70 17.11 106.68 16.02 106.66 14.94 C 107.09 14.32 107.53 13.70 107.97 13.08 C 109.97 13.47 111.93 14.13 113.58 15.37 C 128.30 25.85 143.10 36.35 159.10 44.83 C 164.80 47.84 170.60 50.76 176.74 52.77 C 169.20 47.25 162.31 40.89 155.60 34.40 C 147.18 25.75 138.54 16.23 135.75 4.12 C 135.72 3.04 135.70 1.95 135.67 0.86 Z" />
<path fill="#f8f8f8" d=" M 231.82 78.94 C 234.42 78.32 236.96 79.63 239.43 80.32 C 260.07 87.68 280.43 95.86 300.56 104.54 C 305.66 106.90 311.15 108.79 315.41 112.60 C 333.43 128.30 351.63 143.85 371.02 157.86 C 383.22 166.63 395.88 174.88 409.48 181.33 C 416.96 184.83 424.78 187.81 432.94 189.26 C 443.36 190.73 454.21 189.75 464.02 185.82 C 477.72 180.44 488.62 169.99 497.98 158.93 C 506.60 148.82 514.13 137.81 522.89 127.81 C 524.87 124.76 528.58 126.90 531.22 127.66 C 535.72 129.42 540.60 128.23 545.17 127.43 C 544.35 131.82 543.56 136.35 541.20 140.23 C 538.00 145.66 532.54 149.29 526.87 151.74 C 518.30 155.51 509.20 158.81 502.27 165.36 C 493.44 173.82 484.41 182.15 476.70 191.67 C 471.91 197.70 467.66 204.34 465.52 211.80 C 462.28 224.80 455.03 236.40 446.96 246.94 C 432.46 265.46 414.71 281.08 396.57 295.93 C 396.71 299.64 396.83 303.34 396.93 307.05 C 399.53 305.18 402.05 303.20 404.57 301.22 C 402.87 313.63 404.20 326.67 399.23 338.47 C 397.61 342.09 394.48 345.95 390.10 345.68 C 379.54 345.83 369.33 342.73 358.94 341.40 C 356.30 340.82 355.34 343.96 354.45 345.81 C 351.54 345.11 348.64 344.39 345.73 343.67 C 359.03 332.32 371.48 320.01 384.48 308.33 C 384.28 304.13 384.24 299.94 384.22 295.74 C 362.36 314.90 341.62 335.33 319.42 354.12 C 317.02 354.37 314.62 354.67 312.22 354.92 C 315.13 354.10 319.09 354.79 320.85 351.78 C 335.30 332.92 349.09 313.42 360.47 292.54 C 361.18 286.27 360.14 279.87 359.52 273.61 C 349.92 293.04 338.41 311.46 325.75 329.04 C 324.31 326.06 322.19 323.44 319.03 322.21 C 319.96 321.23 320.83 320.19 321.48 319.01 C 321.50 317.54 320.48 316.38 319.77 315.20 C 315.49 308.93 309.83 303.66 305.98 297.10 C 304.73 294.87 306.83 292.76 308.56 291.62 C 332.79 275.05 358.40 259.11 376.66 235.63 C 384.75 225.58 390.37 213.07 389.93 199.97 C 385.08 212.22 377.41 223.42 367.37 232.00 C 360.60 226.64 353.49 221.71 347.00 216.01 C 322.01 194.64 303.09 167.45 283.75 141.14 C 278.60 134.09 270.74 129.70 262.78 126.52 C 248.02 120.35 231.38 118.99 217.56 110.59 C 209.25 105.96 205.59 93.52 212.12 86.01 C 215.56 84.34 219.69 86.01 223.31 86.49 C 225.93 83.80 227.73 79.62 231.82 78.94 Z" />
<path fill="#f8f8f8" d=" M 474.60 215.43 C 486.83 219.86 499.27 223.98 512.14 226.07 C 530.50 229.84 549.23 231.88 567.98 231.83 C 580.69 231.79 593.44 232.01 606.10 230.64 C 615.20 236.49 624.78 241.85 632.58 249.45 C 634.32 251.34 636.59 253.27 636.84 256.01 C 637.28 259.33 634.05 261.70 634.13 264.95 C 633.76 269.36 639.87 270.59 639.92 274.88 C 640.15 278.90 636.47 281.51 633.31 283.18 C 628.31 285.59 622.62 287.37 617.03 286.36 C 611.25 284.77 607.26 279.96 602.41 276.75 C 592.90 269.75 580.51 267.98 569.00 269.10 C 557.95 269.69 547.03 271.61 536.00 272.48 C 510.28 274.14 484.79 268.33 460.35 260.85 C 457.11 259.56 453.24 259.34 450.44 257.27 C 456.28 249.39 462.16 241.47 466.74 232.76 C 469.80 227.19 471.89 221.16 474.60 215.43 Z" />
<path fill="#a7a9ac" d=" M 748.15 218.90 C 815.42 243.46 876.72 284.03 926.22 335.74 C 960.21 371.07 988.58 411.55 1011.85 454.63 C 1010.27 455.10 1008.68 455.55 1007.11 455.97 C 976.28 407.87 938.25 364.14 893.37 328.64 C 864.67 305.88 833.30 286.51 800.18 270.87 C 778.55 260.54 756.10 252.05 733.36 244.52 C 738.35 236.02 743.27 227.47 748.15 218.90 Z" />
<path fill="#231f20" d=" M 325.75 329.04 C 338.41 311.46 349.92 293.04 359.52 273.61 C 360.14 279.87 361.18 286.27 360.47 292.54 C 349.09 313.42 335.30 332.92 320.85 351.78 C 319.09 354.79 315.13 354.10 312.22 354.92 C 314.62 354.67 317.02 354.37 319.42 354.12 C 341.62 335.33 362.36 314.90 384.22 295.74 C 384.24 299.94 384.28 304.13 384.48 308.33 C 371.48 320.01 359.03 332.32 345.73 343.67 L 345.05 344.22 C 332.99 355.81 319.98 366.35 307.49 377.46 C 297.81 385.81 288.25 394.29 278.52 402.58 C 278.45 395.96 278.49 389.33 278.50 382.71 C 296.33 366.76 311.49 348.16 325.75 329.04 Z" />
<path fill="#a7a9ac" d=" M 83.66 491.70 C 118.56 431.20 163.42 376.44 216.21 330.68 C 228.23 341.19 239.78 352.24 251.59 362.98 C 215.27 395.08 182.70 431.53 155.87 471.93 C 133.53 505.39 115.13 541.43 100.54 578.91 C 83.54 622.47 71.61 667.90 63.19 713.87 C 43.00 713.86 22.80 713.89 2.61 713.86 C 16.93 635.97 43.96 560.28 83.66 491.70 Z" />
<path fill="#0071bb" d=" M 190.72 714.59 C 202.23 648.38 212.55 581.95 224.29 515.79 C 252.73 515.88 281.18 515.80 309.62 515.83 C 321.86 557.44 335.05 598.88 343.74 641.43 C 344.39 644.79 345.07 648.15 346.02 651.45 C 348.09 639.12 349.13 626.60 350.96 614.22 C 355.46 581.30 360.80 548.50 366.70 515.81 C 385.56 515.86 404.43 515.79 423.29 515.84 C 421.09 532.38 417.88 548.78 415.31 565.27 C 406.68 615.01 398.72 664.88 390.23 714.65 C 361.78 714.66 333.34 714.65 304.89 714.66 C 291.67 670.05 276.48 625.77 269.04 579.71 L 267.94 579.70 C 261.79 619.79 256.21 659.97 249.89 700.04 C 249.25 704.95 248.44 709.83 247.41 714.67 C 228.51 714.58 209.62 714.76 190.72 714.59 Z" />
<path fill="#0071bb" d=" M 509.67 537.76 C 512.93 530.27 516.61 522.97 520.49 515.79 C 548.46 515.86 576.44 515.83 604.42 515.80 C 611.56 559.90 618.00 604.11 624.98 648.24 C 628.19 670.39 631.97 692.46 635.01 714.63 C 613.25 714.69 591.49 714.64 569.74 714.66 C 568.64 700.38 567.52 686.10 566.62 671.82 C 546.42 671.83 526.22 671.82 506.02 671.83 C 500.49 686.06 494.96 700.31 489.11 714.42 C 467.27 714.92 445.36 714.61 423.50 714.57 C 429.18 701.48 436.34 689.09 442.02 676.00 C 446.73 666.36 451.85 656.90 456.13 647.05 C 464.67 630.46 472.36 613.45 480.88 596.85 C 486.00 584.89 492.63 573.66 497.74 561.70 C 501.67 553.69 505.74 545.76 509.67 537.76 Z" />
<path fill="#0071bb" d=" M 700.60 516.50 C 701.77 515.44 703.50 515.96 704.94 515.79 C 731.29 515.87 757.64 515.81 783.99 515.83 C 793.65 516.04 803.36 515.26 812.98 516.49 C 822.03 516.36 830.90 518.25 839.79 519.65 C 851.52 522.84 864.10 527.14 871.29 537.64 C 878.27 547.92 877.10 561.14 874.19 572.59 C 870.58 585.85 860.22 596.67 847.74 602.09 C 839.51 606.10 830.39 607.33 821.53 609.21 C 834.03 609.75 846.92 612.44 857.41 619.60 C 864.37 624.57 869.78 632.09 871.28 640.61 C 873.70 656.18 870.08 673.06 860.17 685.55 C 851.70 695.58 840.04 702.53 827.62 706.53 C 805.26 714.08 781.34 714.83 757.96 714.66 C 727.77 714.63 697.57 714.70 667.38 714.62 C 678.59 648.60 689.65 582.56 700.60 516.50 Z" />
<path fill="#0071bb" d=" M 916.71 598.64 C 921.66 570.97 927.60 543.48 932.62 515.81 C 952.93 515.85 973.24 515.81 993.55 515.83 C 986.53 555.55 976.00 594.72 972.48 635.00 C 972.52 643.36 970.63 651.79 973.00 660.02 C 974.50 667.44 980.17 673.73 987.46 675.86 C 999.20 679.54 1012.11 679.25 1023.83 675.60 C 1034.61 672.37 1043.18 663.38 1046.77 652.82 C 1050.96 641.96 1052.07 630.31 1054.11 618.95 C 1059.71 584.55 1065.77 550.23 1071.32 515.82 C 1091.54 515.83 1111.77 515.82 1132.00 515.82 L 1132.00 517.77 C 1130.01 527.48 1128.62 537.31 1126.92 547.08 C 1123.00 570.74 1118.86 594.37 1114.95 618.04 C 1111.83 637.93 1108.65 658.47 1098.31 676.11 C 1090.49 689.95 1078.16 701.17 1063.58 707.53 C 1039.65 718.34 1012.79 718.65 987.03 718.33 C 973.19 717.50 959.14 716.17 946.05 711.35 C 934.89 707.26 924.09 700.38 918.13 689.80 C 910.82 677.36 909.77 662.20 911.25 648.14 C 911.71 631.53 914.10 615.03 916.71 598.64 Z" />
<path fill="#ffffff" d=" M 550.55 563.54 C 552.46 559.12 553.55 554.33 555.91 550.13 C 556.40 550.11 557.37 550.06 557.86 550.03 C 558.23 577.17 561.44 604.18 563.26 631.25 C 549.92 631.27 536.59 631.23 523.25 631.27 C 532.32 608.68 541.85 586.28 550.55 563.54 Z" />
<path fill="#ffffff" d=" M 750.19 592.10 C 751.57 580.19 754.12 568.43 755.80 556.55 C 767.87 556.47 779.93 556.47 791.99 556.53 C 798.02 557.25 804.92 557.95 809.25 562.72 C 813.93 567.25 813.51 574.97 810.26 580.20 C 808.00 584.37 803.68 586.83 799.44 588.56 C 793.61 591.05 787.21 591.52 780.98 592.09 C 770.71 592.18 760.45 592.12 750.19 592.10 Z" />
<path fill="#ffffff" d=" M 743.23 632.66 C 756.17 632.74 769.13 632.56 782.07 632.74 C 790.01 633.81 798.94 635.16 804.54 641.50 C 809.68 646.85 809.50 655.64 805.77 661.72 C 801.34 668.66 792.78 671.31 785.09 672.68 C 768.97 675.21 752.61 673.73 736.37 674.11 C 738.73 660.30 741.00 646.48 743.23 632.66 Z" />
<path fill="#000000" d=" M 175.84 750.87 C 180.14 750.87 184.45 750.86 188.75 750.88 C 187.73 754.47 186.86 758.12 186.28 761.82 C 181.98 761.78 177.68 761.80 173.37 761.80 C 174.18 758.15 175.15 754.54 175.84 750.87 Z" />
<path fill="#000000" d=" M 389.17 750.84 C 393.36 750.89 397.55 750.88 401.74 750.85 C 400.20 759.01 398.60 767.16 396.87 775.28 C 398.95 773.25 400.82 770.79 403.62 769.73 C 408.99 767.55 415.47 767.75 420.51 770.74 C 423.86 772.91 425.48 776.66 427.08 780.16 C 429.51 790.25 427.79 801.31 421.97 809.97 C 418.70 814.50 414.13 818.37 408.51 819.45 C 403.51 820.38 398.15 819.91 393.73 817.25 C 391.03 816.05 389.98 813.13 388.62 810.74 C 388.11 813.21 387.72 815.72 387.08 818.17 C 382.83 818.77 378.52 818.31 374.25 818.42 C 374.44 818.12 374.81 817.52 374.99 817.21 C 375.48 813.77 376.46 810.43 377.11 807.02 C 377.80 802.34 379.21 797.81 379.97 793.15 C 380.25 791.80 380.50 790.44 380.81 789.11 C 382.55 781.15 384.02 773.13 385.91 765.21 C 386.97 760.41 387.46 755.46 389.17 750.84 Z" />
<path fill="#000000" d=" M 652.34 753.20 C 662.83 747.99 675.97 748.01 686.14 754.03 C 693.07 757.71 695.78 766.00 696.01 773.41 C 691.14 773.49 686.27 773.44 681.41 773.46 C 681.40 772.84 681.39 771.59 681.38 770.97 C 680.20 767.62 678.51 764.38 675.25 762.66 C 668.81 760.94 661.37 761.63 656.25 766.23 C 651.96 770.47 649.68 776.27 647.97 781.95 C 646.52 789.62 646.49 798.72 652.56 804.51 C 658.21 808.89 666.28 808.30 672.43 805.30 C 676.27 802.17 678.65 797.81 680.35 793.22 C 675.28 792.63 670.31 794.13 665.24 793.71 C 665.58 790.17 666.57 786.75 667.37 783.31 C 668.69 782.39 670.48 782.98 672.00 782.81 C 679.61 782.84 687.23 782.84 694.85 782.81 C 693.18 792.25 691.02 801.61 688.84 810.96 C 688.46 813.46 687.92 815.94 687.39 818.42 C 684.41 818.45 681.45 818.44 678.48 818.44 C 678.47 816.14 678.47 813.86 678.46 811.57 C 673.29 818.03 664.81 820.94 656.71 819.76 C 649.47 818.50 641.67 815.69 637.68 809.10 C 633.12 802.03 632.38 793.21 632.86 785.02 C 633.57 781.66 634.13 778.27 635.04 774.96 C 638.15 766.10 643.94 757.74 652.34 753.20 Z" />
<path fill="#000000" d=" M 805.11 751.03 C 809.34 750.65 813.60 750.95 817.85 750.88 C 816.83 754.48 816.04 758.14 815.40 761.83 C 811.09 761.76 806.78 761.82 802.48 761.79 C 803.36 758.20 804.04 754.56 805.11 751.03 Z" />
<path fill="#000000" d=" M 831.73 755.44 C 837.18 749.15 846.54 749.68 854.01 751.00 C 853.31 754.09 852.74 757.21 852.20 760.34 C 848.92 760.68 844.71 759.33 842.34 762.33 C 841.18 764.64 840.74 767.23 840.08 769.71 C 843.13 769.80 846.20 769.78 849.27 769.81 C 848.78 772.74 848.19 775.65 847.45 778.53 C 844.40 778.51 841.36 778.52 838.32 778.49 C 837.76 780.60 837.34 782.73 836.87 784.87 C 835.34 792.97 833.66 801.05 832.07 809.14 C 831.25 812.21 830.72 815.34 830.01 818.44 C 825.70 818.44 821.39 818.45 817.10 818.43 C 817.40 816.92 817.74 815.44 818.09 813.96 C 819.14 809.00 820.17 804.04 821.22 799.08 C 822.69 792.21 823.89 785.27 825.62 778.46 C 822.94 778.53 820.26 778.52 817.59 778.50 C 818.20 775.59 818.67 772.65 819.40 769.78 C 821.94 769.78 824.49 769.78 827.04 769.79 C 828.19 764.88 829.37 759.93 831.73 755.44 Z" />
<path fill="#000000" d=" M 1042.30 750.85 C 1046.55 750.88 1050.80 750.87 1055.06 750.87 C 1053.10 760.62 1051.03 770.36 1048.99 780.11 C 1046.88 791.80 1044.10 803.36 1041.94 815.05 C 1041.63 816.17 1041.35 817.30 1041.08 818.45 C 1036.78 818.44 1032.49 818.44 1028.20 818.44 C 1031.70 802.96 1034.50 787.33 1037.92 771.83 C 1038.90 766.59 1040.11 761.40 1040.98 756.14 C 1041.36 754.36 1041.80 752.60 1042.30 750.85 Z" />
<path fill="#000000" d=" M 16.84 752.91 C 17.07 752.40 17.53 751.37 17.76 750.86 C 22.31 750.88 26.86 750.86 31.40 750.88 C 31.01 753.53 30.52 756.18 30.05 758.83 C 29.73 760.19 29.45 761.57 29.16 762.96 C 28.02 768.50 26.88 774.04 25.96 779.63 C 31.28 774.77 36.13 769.42 41.37 764.47 C 46.57 760.40 50.85 755.33 55.69 750.85 C 61.88 750.91 68.08 750.82 74.27 750.91 C 64.38 760.71 53.39 769.33 43.35 778.99 C 48.22 788.12 52.37 797.63 57.57 806.59 C 59.57 810.50 61.51 814.46 63.48 818.39 C 58.02 818.47 52.55 818.49 47.09 818.38 C 42.01 808.28 37.51 797.92 32.28 787.90 C 30.21 789.99 28.21 792.19 25.85 793.98 C 24.26 795.26 22.43 796.60 22.01 798.74 C 20.99 803.70 19.98 808.66 19.04 813.64 C 18.71 815.24 18.35 816.81 18.02 818.44 C 13.19 818.44 8.37 818.45 3.54 818.44 C 5.74 809.39 7.17 800.17 9.23 791.09 C 11.48 778.31 14.53 765.67 16.84 752.91 Z" />
<path fill="#000000" d=" M 590.40 750.96 C 594.65 750.69 598.93 750.83 603.18 751.20 C 602.74 752.83 602.34 754.49 601.93 756.14 C 601.25 760.82 600.16 765.42 599.19 770.04 C 597.59 777.00 596.42 784.04 594.90 791.02 C 594.61 792.43 594.33 793.84 594.08 795.28 C 592.13 802.93 591.09 810.78 589.17 818.45 C 585.06 818.43 580.94 818.44 576.83 818.44 C 577.18 816.60 577.54 814.78 577.77 812.93 C 573.69 818.70 566.24 821.02 559.46 819.47 C 554.09 818.62 549.22 815.06 547.30 809.90 C 546.61 807.98 546.29 805.97 545.73 804.02 C 545.63 801.31 545.63 798.59 545.76 795.89 C 546.63 789.78 548.60 783.94 551.80 778.64 C 557.47 769.60 569.71 765.90 579.51 769.94 C 581.50 771.78 583.38 773.74 585.05 775.88 C 586.20 769.26 587.86 762.75 588.90 756.11 C 589.43 754.40 589.77 752.62 590.40 750.96 Z" />
<path fill="#000000" d=" M 1098.88 751.15 C 1103.15 750.53 1107.51 751.00 1111.83 750.89 C 1111.19 753.72 1110.62 756.56 1110.04 759.40 C 1106.33 777.56 1102.57 795.71 1098.87 813.87 C 1098.55 815.40 1098.21 816.94 1097.81 818.46 C 1093.59 818.41 1089.37 818.51 1085.17 818.35 C 1085.50 817.43 1086.15 815.60 1086.48 814.68 C 1086.24 814.39 1085.75 813.80 1085.50 813.50 C 1081.50 820.21 1072.62 820.70 1065.79 819.07 C 1061.23 817.40 1057.30 814.03 1055.78 809.33 C 1052.42 798.62 1055.12 786.57 1061.43 777.47 C 1066.32 770.22 1075.91 767.13 1084.30 768.74 C 1088.58 769.35 1091.14 772.93 1093.97 775.80 C 1095.19 767.52 1096.93 759.30 1098.88 751.15 Z" />
<path fill="#000000" d=" M 101.70 769.74 C 105.40 768.02 109.51 768.32 113.46 768.41 C 113.19 769.25 112.93 770.11 112.66 770.96 C 112.26 774.54 111.36 778.03 110.39 781.49 C 105.25 779.83 99.15 780.40 94.96 784.00 C 92.37 787.25 90.44 791.09 89.46 795.14 C 87.93 802.93 86.14 810.66 84.67 818.47 C 80.15 818.41 75.63 818.46 71.12 818.43 C 73.58 807.38 75.85 796.29 78.17 785.21 C 79.40 780.09 80.24 774.90 81.43 769.77 C 85.61 769.79 89.78 769.78 93.96 769.78 C 93.42 772.95 92.77 776.10 92.00 779.24 C 94.06 775.12 97.27 771.34 101.70 769.74 Z" />
<path fill="#000000" d=" M 124.58 770.67 C 132.78 767.28 142.75 767.24 150.14 772.61 C 153.43 774.55 155.00 778.18 156.21 781.63 C 157.88 786.71 157.95 792.26 156.55 797.42 C 144.94 797.39 133.33 797.37 121.73 797.43 C 121.79 800.03 122.12 802.64 122.69 805.20 C 125.22 807.63 128.24 810.34 132.06 809.75 C 136.55 810.21 139.70 806.57 141.99 803.23 C 146.24 803.22 150.50 803.18 154.75 803.27 C 154.35 804.40 153.93 805.51 153.52 806.66 C 150.97 811.25 147.56 815.55 142.55 817.59 C 134.24 821.04 123.76 821.04 116.42 815.32 C 112.82 812.51 111.25 808.00 109.84 803.84 C 109.43 800.29 109.35 796.68 109.90 793.15 C 110.99 787.98 112.57 782.84 115.76 778.55 C 118.01 775.20 121.12 772.68 124.58 770.67 Z" />
<path fill="#000000" d=" M 198.79 771.72 C 206.79 767.50 216.71 767.15 225.08 770.54 C 230.11 772.73 232.83 778.19 232.36 783.56 C 228.30 783.59 224.25 783.57 220.20 783.58 C 219.64 781.75 219.59 779.33 217.73 778.24 C 215.31 776.85 212.40 777.13 209.72 777.16 C 208.80 777.42 207.88 777.68 206.96 777.94 C 204.63 779.51 203.67 782.42 205.94 784.51 C 211.29 787.93 217.80 788.69 223.33 791.77 C 226.14 793.86 228.29 796.66 229.36 800.03 C 229.86 805.95 227.92 812.36 222.76 815.76 C 214.80 820.58 204.81 820.82 196.07 818.09 C 189.74 816.06 185.90 809.83 186.33 803.27 C 190.50 803.18 194.67 803.22 198.84 803.23 C 198.81 804.04 198.75 805.65 198.72 806.46 C 200.66 808.52 202.95 810.22 205.59 811.32 C 209.39 811.23 214.34 811.15 216.31 807.24 C 216.30 805.67 216.28 804.12 216.27 802.58 C 210.40 797.94 202.31 798.00 196.11 793.99 C 193.80 792.67 193.05 789.93 191.78 787.78 C 191.48 785.24 191.49 782.69 191.76 780.17 C 193.40 776.86 195.42 773.52 198.79 771.72 Z" />
<path fill="#000000" d=" M 300.78 770.74 C 308.34 767.62 317.30 767.16 324.56 771.36 C 333.58 776.25 335.01 788.27 333.00 797.39 C 321.40 797.42 309.80 797.38 298.21 797.41 C 298.27 800.51 297.84 804.26 300.43 806.54 C 303.67 810.18 309.45 810.81 313.59 808.44 C 315.40 806.91 317.00 805.14 318.38 803.23 C 322.63 803.22 326.89 803.17 331.15 803.29 C 329.83 807.04 327.60 810.36 325.24 813.53 C 320.17 817.78 313.65 820.15 307.01 819.88 C 299.60 820.11 291.45 816.58 288.31 809.52 C 284.43 801.90 285.65 792.92 288.44 785.16 C 291.02 779.27 294.97 773.76 300.78 770.74 Z" />
<path fill="#000000" d=" M 439.81 779.64 C 443.26 771.47 452.67 767.98 461.02 768.35 C 467.47 768.15 474.99 768.94 479.40 774.25 C 479.96 775.45 480.55 776.67 481.16 777.87 C 481.45 789.25 476.81 799.97 474.63 811.00 C 474.54 813.48 474.53 815.96 474.54 818.45 C 470.45 818.44 466.35 818.44 462.26 818.45 C 462.25 816.93 462.24 815.43 462.24 813.94 C 456.39 819.92 447.16 821.26 439.50 818.35 C 434.95 816.02 432.07 810.98 432.46 805.89 C 432.72 800.43 436.23 795.47 441.06 793.04 C 448.46 788.99 457.27 790.38 465.18 788.11 C 466.62 787.66 467.65 786.50 468.81 785.61 C 468.83 783.26 468.74 780.89 467.60 778.79 C 463.66 777.17 458.83 775.99 455.01 778.48 C 452.64 779.54 451.69 782.03 450.95 784.32 C 446.97 784.34 442.99 784.34 439.02 784.33 C 439.27 782.75 439.56 781.19 439.81 779.64 Z" />
<path fill="#000000" d=" M 507.10 776.84 C 510.96 771.56 517.33 767.94 523.97 768.33 C 528.67 768.32 534.27 769.97 536.21 774.72 C 538.09 778.15 538.06 782.26 537.20 785.99 C 534.54 796.73 533.03 807.74 530.23 818.45 C 525.93 818.43 521.63 818.45 517.33 818.44 C 519.18 810.96 520.23 803.32 522.08 795.85 C 522.26 794.56 522.44 793.27 522.62 791.99 C 522.74 791.71 522.98 791.15 523.10 790.87 C 523.60 787.85 523.98 784.81 523.93 781.75 C 522.29 780.17 520.53 778.09 517.99 778.47 C 511.07 777.80 506.59 784.39 504.97 790.29 C 502.65 799.59 501.27 809.11 499.08 818.44 C 494.72 818.43 490.35 818.48 485.99 818.39 C 488.19 807.19 490.47 796.01 493.03 784.90 C 493.73 780.16 494.97 775.53 495.90 770.84 C 496.13 770.59 496.58 770.11 496.80 769.87 C 500.68 769.64 504.58 769.85 508.48 769.77 C 507.97 772.12 507.51 774.47 507.10 776.84 Z" />
<path fill="#000000" d=" M 731.43 769.50 C 734.97 768.00 738.86 768.35 742.61 768.43 C 742.33 769.27 742.05 770.12 741.77 770.98 C 741.36 774.55 740.47 778.04 739.50 781.50 C 736.65 780.43 733.59 780.65 730.62 780.68 C 728.02 781.89 724.78 782.52 723.17 785.14 C 721.31 788.04 719.55 791.06 718.78 794.46 C 717.13 802.45 715.26 810.39 713.88 818.43 C 709.32 818.45 704.75 818.44 700.19 818.44 C 700.77 815.92 701.36 813.43 701.97 810.93 C 702.94 805.98 703.87 801.00 705.08 796.10 C 706.80 787.30 708.71 778.54 710.60 769.78 C 714.75 769.79 718.90 769.78 723.05 769.79 C 722.56 772.96 721.91 776.10 721.04 779.20 C 723.29 774.93 726.73 771.04 731.43 769.50 Z" />
<path fill="#000000" d=" M 752.81 770.76 C 760.57 767.52 769.91 767.13 777.22 771.73 C 785.78 776.83 787.01 788.50 785.03 797.40 C 773.44 797.41 761.86 797.38 750.28 797.41 C 750.32 800.50 749.93 804.17 752.44 806.50 C 755.69 810.14 761.44 810.83 765.62 808.47 C 767.44 806.94 769.04 805.15 770.43 803.23 C 774.64 803.21 778.84 803.20 783.05 803.24 C 782.71 804.26 782.38 805.29 782.07 806.33 C 780.59 808.82 778.97 811.21 777.29 813.57 C 768.29 821.19 754.10 822.28 744.47 815.24 C 738.12 808.90 736.66 799.18 738.85 790.74 C 740.63 782.63 745.36 774.77 752.81 770.76 Z" />
<path fill="#000000" d=" M 859.59 772.38 C 867.55 767.48 877.90 767.06 886.54 770.41 C 891.71 772.49 894.73 778.06 893.97 783.57 C 889.96 783.59 885.95 783.57 881.95 783.58 C 881.53 781.55 881.22 779.00 879.10 778.01 C 874.82 776.31 869.21 776.58 866.16 780.44 C 866.49 781.86 866.75 783.36 867.71 784.55 C 870.94 786.58 874.64 787.73 878.28 788.83 C 882.58 790.33 887.15 792.38 889.55 796.48 C 893.31 803.39 890.15 812.75 883.36 816.49 C 876.71 819.88 868.88 820.65 861.61 819.12 C 857.85 818.06 853.96 816.74 851.26 813.77 C 848.89 810.83 848.30 806.92 848.14 803.27 C 852.30 803.18 856.46 803.22 860.62 803.23 C 860.60 804.04 860.56 805.68 860.54 806.50 C 862.75 808.78 865.42 811.19 868.79 811.24 C 871.74 811.54 874.52 810.29 877.19 809.21 C 877.96 806.82 878.27 804.32 877.60 801.87 C 871.13 797.96 862.99 797.77 856.90 793.22 C 851.06 787.36 852.66 776.68 859.59 772.38 Z" />
<path fill="#000000" d=" M 983.52 776.31 C 988.45 770.32 996.43 767.89 1003.99 768.35 C 1011.34 768.00 1020.44 769.94 1023.24 777.72 C 1023.40 781.83 1022.89 785.92 1022.04 789.94 C 1020.04 796.91 1018.48 804.00 1016.68 811.02 C 1016.59 813.48 1016.58 815.96 1016.60 818.45 C 1012.50 818.44 1008.40 818.44 1004.31 818.44 C 1004.29 816.92 1004.28 815.40 1004.29 813.90 C 999.48 818.79 992.17 820.88 985.49 819.42 C 984.17 819.04 982.84 818.65 981.53 818.32 C 975.79 815.46 972.97 808.18 975.24 802.19 C 977.09 795.74 983.51 791.89 989.77 790.64 C 996.07 789.59 1002.59 789.58 1008.74 787.64 C 1009.42 786.89 1010.11 786.15 1010.82 785.42 C 1010.71 783.20 1011.21 780.51 1009.31 778.89 C 1005.43 776.47 1000.35 776.54 996.36 778.63 C 994.73 780.19 993.63 782.17 992.99 784.33 C 988.94 784.34 984.90 784.35 980.86 784.30 C 981.55 781.57 982.26 778.84 983.52 776.31 Z" />
<path fill="#000000" d=" M 368.17 769.99 C 371.95 768.08 376.24 768.29 380.35 768.38 C 379.85 770.51 379.43 772.66 379.08 774.83 C 378.64 777.07 377.98 779.26 377.44 781.49 C 372.28 779.83 366.17 780.41 361.97 784.02 C 359.40 787.30 357.44 791.12 356.49 795.20 C 354.90 802.96 353.22 810.69 351.70 818.47 C 347.17 818.42 342.65 818.44 338.13 818.44 C 338.80 815.61 339.36 812.76 340.08 809.95 C 340.92 805.28 341.94 800.64 342.98 796.02 C 344.76 787.26 346.63 778.52 348.48 769.77 C 352.64 769.79 356.81 769.78 360.98 769.78 C 360.47 772.97 359.74 776.13 359.10 779.30 C 359.72 778.13 360.32 776.95 360.90 775.77 C 363.06 773.55 365.16 771.07 368.17 769.99 Z" />
<path fill="#000000" d=" M 168.13 788.13 C 169.29 781.98 170.51 775.84 172.04 769.77 C 176.29 769.79 180.53 769.79 184.78 769.76 C 183.36 777.50 181.49 785.15 180.06 792.90 C 179.69 794.66 179.32 796.43 178.96 798.21 C 178.25 802.88 177.01 807.45 176.06 812.08 C 175.72 814.23 175.14 816.33 174.72 818.47 C 170.41 818.41 166.10 818.45 161.79 818.45 C 163.96 808.35 166.10 798.26 168.13 788.13 Z" />
<path fill="#000000" d=" M 238.64 769.79 C 243.26 769.78 247.88 769.78 252.50 769.78 C 252.59 781.40 254.71 792.91 254.84 804.54 C 261.35 793.35 266.15 781.29 272.09 769.81 C 276.72 769.76 281.35 769.77 285.99 769.80 C 276.98 785.83 268.71 802.26 259.84 818.37 C 255.00 818.51 250.16 818.41 245.32 818.46 C 242.61 802.34 241.21 785.94 238.64 769.79 Z" />
<path fill="#000000" d=" M 795.04 799.01 C 797.13 789.27 798.69 779.41 801.23 769.77 C 805.43 769.79 809.63 769.79 813.84 769.76 C 813.56 771.43 813.35 773.11 813.07 774.80 C 810.04 787.15 807.99 799.72 805.27 812.13 C 804.78 814.22 804.37 816.33 803.91 818.43 C 799.58 818.44 795.26 818.45 790.94 818.44 C 791.31 816.92 791.64 815.40 791.99 813.90 C 792.46 811.08 793.00 808.26 793.66 805.48 C 794.22 803.34 794.59 801.16 795.04 799.01 Z" />
<path fill="#000000" d=" M 901.23 769.79 C 905.58 769.78 909.95 769.78 914.31 769.78 C 914.13 773.88 914.47 777.95 915.06 782.00 C 914.93 789.56 916.05 797.04 915.83 804.61 C 920.91 793.06 925.95 781.48 930.65 769.77 C 935.14 769.79 939.64 769.77 944.14 769.79 C 943.67 776.55 945.10 783.20 944.75 789.96 C 944.45 794.58 945.69 799.09 945.67 803.71 C 950.63 792.37 955.81 781.12 960.78 769.78 C 965.39 769.78 970.00 769.77 974.63 769.79 C 970.55 777.33 967.20 785.24 962.82 792.61 C 958.28 801.10 954.42 809.97 949.69 818.35 C 945.17 818.59 940.65 818.37 936.14 818.44 C 936.12 814.39 936.40 810.30 935.59 806.31 C 934.80 801.22 936.16 795.95 934.74 790.97 C 934.62 788.79 934.57 786.62 934.45 784.47 C 929.58 795.80 924.42 807.01 919.85 818.46 C 915.36 818.43 910.88 818.43 906.40 818.46 C 905.04 809.08 903.89 799.52 903.30 790.01 C 902.35 783.33 901.31 776.56 901.23 769.79 Z" />
<path fill="#ffffff" d=" M 564.20 782.12 C 567.83 778.62 573.64 776.95 578.14 779.81 C 580.54 780.78 581.00 783.54 581.88 785.67 C 582.45 793.25 581.05 801.86 574.92 807.02 C 572.26 809.65 568.23 810.47 564.72 809.26 C 562.21 808.67 561.10 806.13 559.58 804.34 C 557.14 796.67 559.76 788.50 564.20 782.12 Z" />
<path fill="#ffffff" d=" M 122.97 788.53 C 125.08 783.97 128.64 779.24 133.98 778.55 C 136.51 778.50 139.28 778.03 141.51 779.54 C 144.90 781.08 145.39 785.36 145.26 788.65 C 137.83 788.60 130.39 788.81 122.97 788.53 Z" />
<path fill="#ffffff" d=" M 299.27 788.53 C 301.34 784.13 304.70 779.64 309.74 778.63 C 311.80 778.41 313.87 778.51 315.94 778.52 C 317.11 779.16 318.30 779.81 319.50 780.46 C 320.14 781.64 320.79 782.85 321.46 784.04 C 321.46 785.57 321.46 787.11 321.47 788.66 C 314.07 788.59 306.67 788.81 299.27 788.53 Z" />
<path fill="#ffffff" d=" M 397.88 781.78 C 399.57 780.61 401.31 779.53 403.10 778.52 C 405.03 778.51 406.96 778.50 408.90 778.51 C 415.37 780.56 415.87 788.35 414.81 793.99 C 413.63 799.24 412.05 805.30 407.00 808.14 C 403.77 810.40 399.59 809.97 396.07 808.74 C 391.92 805.21 390.98 799.42 392.22 794.32 C 392.70 789.64 395.00 785.41 397.88 781.78 Z" />
<path fill="#ffffff" d=" M 751.35 788.55 C 753.31 784.37 756.37 780.12 761.03 778.83 C 764.64 777.97 768.51 778.37 771.67 780.40 C 773.23 782.89 773.81 785.72 773.61 788.65 C 766.19 788.62 758.76 788.79 751.35 788.55 Z" />
<path fill="#ffffff" d=" M 1076.36 779.38 C 1081.13 777.47 1088.31 778.18 1089.96 783.87 C 1092.35 793.14 1089.07 805.12 1079.81 809.38 C 1076.19 810.36 1071.45 809.70 1069.49 806.10 C 1066.98 802.96 1067.26 798.79 1067.49 795.04 C 1068.52 789.04 1071.12 782.86 1076.36 779.38 Z" />
<path fill="#ffffff" d=" M 1000.07 797.30 C 1002.76 796.68 1005.51 796.25 1008.14 795.36 C 1006.64 799.85 1006.40 805.28 1002.39 808.44 C 998.36 812.46 990.61 812.40 987.46 807.33 C 987.72 805.25 987.08 802.79 988.66 801.13 C 991.22 797.49 996.02 797.19 1000.07 797.30 Z" />
<path fill="#ffffff" d=" M 458.02 797.29 C 460.73 796.71 463.45 796.21 466.10 795.39 C 464.58 799.90 464.32 805.39 460.24 808.52 C 456.69 811.93 450.67 812.28 446.84 809.16 C 444.75 806.78 444.89 802.50 447.28 800.34 C 449.98 797.34 454.29 797.27 458.02 797.29 Z" />
<path fill="#9e9fa0" d=" M 1123.70 809.06 C 1125.08 808.61 1125.58 809.09 1125.20 810.49 C 1123.78 810.93 1123.28 810.46 1123.70 809.06 Z" />
<path fill="#231f20" d=" M 615.39 824.80 C 617.27 823.81 619.42 823.77 621.50 823.69 C 619.49 824.21 617.43 824.54 615.39 824.80 Z" />
<path fill="#d4d5d6" d=" M 1085.49 868.70 C 1087.37 867.32 1090.42 866.09 1091.71 868.98 C 1089.62 868.95 1087.55 868.88 1085.49 868.70 Z" />
</svg>
